HIERARCHY
ROOT Hips
{
	OFFSET 0.000000 0.000000 0.000000
	CHANNELS 6 Xposition Yposition Zposition Xrotation Yrotation Zrotation
	JOINT LeftUpLeg_virtual
	{
		OFFSET 0.000000 0.000000 0.000000
		CHANNELS 3 Xrotation Yrotation Zrotation
		JOINT LeftUpLeg
		{
			OFFSET 11.394100 -6.187798 -0.413800
			CHANNELS 3 Xrotation Yrotation Zrotation
			JOINT LeftLeg
			{
				OFFSET 0.430247 -32.302673 3.732800
				CHANNELS 3 Xrotation Yrotation Zrotation
				JOINT LeftFoot
				{
					OFFSET -0.430247 -48.264931 -6.423300
					CHANNELS 3 Xrotation Yrotation Zrotation
					JOINT LeftToeBase
					{
						OFFSET 4.230900 -16.068199 23.438400
						CHANNELS 3 Xrotation Yrotation Zrotation
						JOINT LeftToe_End
						{
							OFFSET 4.510700 0.695400 19.974600
							CHANNELS 3 Xrotation Yrotation Zrotation
							End Site
							{
								OFFSET 0 0 0
							}
						}
					}
				}
			}
		}
	}
	JOINT RightUpLeg_virtual
	{
		OFFSET 0.000000 0.000000 0.000000
		CHANNELS 3 Xrotation Yrotation Zrotation
		JOINT RightUpLeg
		{
			OFFSET -11.333700 -6.187798 -0.413800
			CHANNELS 3 Xrotation Yrotation Zrotation
			JOINT RightLeg
			{
				OFFSET -0.430392 -32.302628 3.733000
				CHANNELS 3 Xrotation Yrotation Zrotation
				JOINT RightFoot
				{
					OFFSET 0.430392 -48.264973 -6.423500
					CHANNELS 3 Xrotation Yrotation Zrotation
					JOINT RightToeBase
					{
						OFFSET -4.230900 -16.068199 23.438400
						CHANNELS 3 Xrotation Yrotation Zrotation
						JOINT RightToe_End
						{
							OFFSET -4.510700 0.695400 19.974600
							CHANNELS 3 Xrotation Yrotation Zrotation
							End Site
							{
								OFFSET 0 0 0
							}
						}
					}
				}
			}
		}
	}
	JOINT Spine_virtual
	{
		OFFSET 0.000000 0.000000 0.000000
		CHANNELS 3 Xrotation Yrotation Zrotation
		JOINT Spine
		{
			OFFSET -0.002400 12.777504 0.315300
			CHANNELS 3 Xrotation Yrotation Zrotation
			JOINT Spine1
			{
				OFFSET -0.002067 5.816869 0.032633
				CHANNELS 3 Xrotation Yrotation Zrotation
				JOINT Spine1_split
				{
					OFFSET -0.002067 5.816869 0.032633
					CHANNELS 3 Xrotation Yrotation Zrotation
					JOINT Spine2
					{
						OFFSET -0.002067 5.816869 0.032633
						CHANNELS 3 Xrotation Yrotation Zrotation
						JOINT Neck_virtual
						{
							OFFSET 0.000000 0.000000 0.000000
							CHANNELS 3 Xrotation Yrotation Zrotation
							JOINT Neck
							{
								OFFSET -0.003700 21.199493 -0.826900
								CHANNELS 3 Xrotation Yrotation Zrotation
								JOINT Head
								{
									OFFSET 0.000000 20.442200 4.834800
									CHANNELS 3 Xrotation Yrotation Zrotation
									JOINT HeadTop_End
									{
										OFFSET 0.000000 34.668396 4.968400
										CHANNELS 3 Xrotation Yrotation Zrotation
										End Site
										{
											OFFSET 0 0 0
										}
									}
								}
							}
						}
						JOINT LeftShoulder_virtual
						{
							OFFSET 0.000000 0.000000 0.000000
							CHANNELS 3 Xrotation Yrotation Zrotation
							JOINT LeftShoulder
							{
								OFFSET 3.288150 8.794197 -1.372250
								CHANNELS 3 Xrotation Yrotation Zrotation
								JOINT LeftShoulder_split
								{
									OFFSET 3.288150 8.794197 -1.372250
									CHANNELS 3 Xrotation Yrotation Zrotation
									JOINT LeftArm
									{
										OFFSET 11.953299 -2.279007 -0.146200
										CHANNELS 3 Xrotation Yrotation Zrotation
										JOINT LeftForeArm
										{
											OFFSET 18.448900 0.000000 0.000000
											CHANNELS 3 Xrotation Yrotation Zrotation
											JOINT LeftHand
											{
												OFFSET 29.527798 0.000000 0.000000
												CHANNELS 3 Xrotation Yrotation Zrotation
												End Site
												{
													OFFSET 0 0 0
												}
											}
										}
									}
								}
							}
						}
						JOINT RightShoulder_virtual
						{
							OFFSET 0.000000 0.000000 0.000000
							CHANNELS 3 Xrotation Yrotation Zrotation
							JOINT RightShoulder
							{
								OFFSET -3.249400 8.794197 -1.372250
								CHANNELS 3 Xrotation Yrotation Zrotation
								JOINT RightShoulder_split
								{
									OFFSET -3.249400 8.794197 -1.372250
									CHANNELS 3 Xrotation Yrotation Zrotation
									JOINT RightArm
									{
										OFFSET -11.953299 -2.279007 -0.146200
										CHANNELS 3 Xrotation Yrotation Zrotation
										JOINT RightForeArm
										{
											OFFSET -18.448900 0.000000 0.000000
											CHANNELS 3 Xrotation Yrotation Zrotation
											JOINT RightHand
											{
												OFFSET -29.527802 0.000000 0.000000
												CHANNELS 3 Xrotation Yrotation Zrotation
												End Site
												{
													OFFSET 0 0 0
												}
											}
										}
									}
								}
							}
						}
					}
				}
			}
		}
	}
}
MOTION
Frames: 4
Frame Time: 0.03333333
-0.777654 104.685524 0.044201 0.000000 0.000000 0.000000 -6.137830 -16.710211 -1.582485 -0.240046 22.113439 4.604784 8.163595 6.379357 1.700818 -7.492110 -1.173299 -0.568719 2.891905 0.775271 -1.443482 0.000000 0.000000 0.000000 -6.193954 -14.320961 -1.467608 -9.150836 -7.707798 -9.747981 6.229141 -12.269818 -2.255392 11.584314 -2.576249 4.783248 -5.022609 -1.475135 -2.238614 0.000000 0.000000 0.000000 -6.058303 -16.696611 -2.071281 10.309057 2.253169 0.656101 -4.474101 1.404262 -0.970274 0.858248 0.437259 0.146142 0.000000 0.000000 0.000000 -5.729150 3.788284 -1.329894 5.301823 3.708389 1.299437 1.840947 -6.390412 4.769397 0.000000 0.000000 0.000000 -6.121491 3.849219 -1.592993 2.360629 -13.094144 -2.698792 -2.005903 -2.339823 -0.043848 15.331760 6.031558 -74.982568 3.701621 -10.084081 0.918091 0.000000 0.000000 0.000000 -4.996197 3.987134 -1.462297 1.131026 2.969545 4.765925 -3.081313 -1.041340 -1.369316 0.528812 7.611757 79.987232 2.339351 20.223015 1.697253 0.000000 0.000000 0.000000 
-0.722219 104.566216 0.047676 0.000000 0.000000 0.000000 -6.169689 -16.961506 -1.600968 -0.644195 22.081375 4.622623 8.776237 6.400977 1.801782 -7.601845 -1.214365 -0.535711 2.949610 0.757287 -1.490755 0.000000 0.000000 0.000000 -6.141316 -14.367581 -1.491574 -9.287631 -7.754081 -9.590207 6.016607 -12.340229 -2.403410 11.773661 -2.705646 4.914730 -5.189505 -1.391987 -2.252102 0.000000 0.000000 0.000000 -6.151592 -16.793960 -2.133261 10.238017 2.216658 0.680967 -4.531584 1.393986 -1.020735 0.752727 0.518380 0.115795 0.000000 0.000000 0.000000 -5.855781 3.776920 -1.376335 5.373497 3.678661 1.347194 1.851847 -6.387458 4.747176 0.000000 0.000000 0.000000 -6.146907 3.845572 -1.648521 2.331674 -12.991700 -2.850905 -2.022412 -2.230156 -0.057350 15.303437 6.411060 -74.735336 3.514250 -9.980286 0.731196 0.000000 0.000000 0.000000 -4.995766 3.989616 -1.524447 1.113585 3.060699 4.891406 -2.942541 -1.011010 -1.347444 0.576245 7.665615 80.118877 2.420826 20.756969 1.708314 0.000000 0.000000 0.000000 
-0.663849 104.322449 -0.013168 0.000000 0.000000 0.000000 -6.053645 -17.088017 -1.683558 -1.559119 21.836559 4.923916 10.036520 6.211236 1.909850 -7.758039 -1.497632 -0.460546 2.902499 0.725876 -1.554303 0.000000 0.000000 0.000000 -6.108275 -14.240923 -1.617228 -9.637501 -8.152203 -9.432613 6.296711 -12.253312 -2.519579 11.440810 -2.701879 5.274527 -5.207384 -1.220683 -2.164050 0.000000 0.000000 0.000000 -6.080856 -16.896250 -2.245376 10.108436 2.160711 0.788060 -4.591446 1.375540 -1.096160 0.742297 0.528310 0.127051 0.000000 0.000000 0.000000 -5.979511 3.756549 -1.452664 5.421771 3.646766 1.286396 1.783694 -6.492570 4.919419 0.000000 0.000000 0.000000 -6.158736 3.823737 -1.709690 2.266750 -12.820163 -3.098112 -2.063481 -2.263418 -0.106155 15.288625 6.789864 -74.131240 3.554622 -9.705038 0.620445 0.000000 0.000000 0.000000 -4.991073 3.972247 -1.606649 1.072993 3.078971 5.135680 -2.983304 -1.041186 -1.343215 0.608388 8.258762 79.963921 2.690717 21.332177 1.772686 0.000000 0.000000 0.000000 
-0.556218 103.983932 -0.239300 0.000000 0.000000 0.000000 -5.843361 -17.067709 -1.773250 -2.842234 21.492999 5.397542 11.693435 5.917675 1.986661 -7.924553 -1.970312 -0.266935 2.782700 0.677957 -1.570298 0.000000 0.000000 0.000000 -6.102211 -13.942210 -1.773784 -10.178823 -8.838654 -9.340378 6.908583 -12.009499 -2.617872 10.641925 -2.605868 5.768049 -4.857692 -0.997939 -1.930763 0.000000 0.000000 0.000000 -5.864333 -17.009596 -2.369551 9.968132 2.090104 0.924458 -4.636483 1.357796 -1.179719 0.843463 0.523397 0.172687 0.000000 0.000000 0.000000 -6.095579 3.732023 -1.535320 5.440357 3.607966 1.151268 1.670945 -6.684449 5.251373 0.000000 0.000000 0.000000 -6.148681 3.791730 -1.761045 2.173479 -12.580704 -3.417784 -2.008286 -2.460209 -0.143403 15.168935 7.002908 -73.312915 3.785229 -9.317753 0.542612 0.000000 0.000000 0.000000 -4.978310 3.941672 -1.689980 1.015426 3.018904 5.478935 -3.158387 -1.068272 -1.359641 0.657533 9.195085 79.497419 3.128185 21.857725 1.901897 0.000000 0.000000 0.000000 
